<svg width="236" height="228" viewBox="0 0 236 228" fill="none" xmlns="http://www.w3.org/2000/svg">
<rect id="Rectangle 1" x="9" y="114" width="160" height="160" transform="rotate(-45 9 114)" fill="#1A000E"/>
<path id="N" d="M22.3535 178.736C18.5988 178.736 15.0575 178.224 11.7295 177.2C8.4015 176.261 5.7135 174.64 3.6655 172.336C1.6175 170.032 0.593498 166.917 0.593498 162.992C0.593498 161.627 0.721498 160.261 0.977497 158.896C0.977497 158.384 1.27616 158.128 1.8735 158.128C2.3855 158.128 2.6415 158.341 2.6415 158.768C2.6415 159.28 2.6415 159.749 2.6415 160.176C2.55616 160.603 2.5135 161.072 2.5135 161.584C2.5135 165.168 3.58016 168.112 5.7135 170.416C7.7615 172.72 10.4495 174.427 13.7775 175.536C17.1055 176.645 20.6042 177.2 24.2735 177.2C28.3695 177.2 32.3375 176.603 36.1775 175.408C40.2735 174.128 44.1988 172.208 47.9535 169.648C51.7082 167.173 55.2495 164.272 58.5775 160.944C53.1162 157.445 48.8922 152.624 45.9055 146.48C42.9188 140.336 41.4255 133.637 41.4255 126.384C41.4255 122.032 42.0228 117.381 43.2175 112.432C45.0095 105.776 47.8682 99.248 51.7935 92.848C55.8042 86.3627 61.2655 80.3467 68.1775 74.8C75.1748 69.2533 83.9642 64.4747 94.5455 60.464C105.212 56.4533 118.055 53.5093 133.074 51.632C135.036 51.376 137.383 51.1627 140.114 50.992C142.93 50.736 145.66 50.5227 148.306 50.352C150.951 50.096 153.042 49.968 154.578 49.968H154.706C155.132 49.968 155.431 50.1387 155.602 50.48C155.858 50.8213 155.986 51.2053 155.986 51.632C155.986 52.3147 155.687 52.656 155.09 52.656C152.018 52.4853 149.543 53.3813 147.666 55.344C145.788 57.3067 143.954 59.8667 142.162 63.024C140.455 66.0107 139.388 69.808 138.962 74.416C138.62 78.9387 138.45 83.5467 138.45 88.24V94.256C138.45 96.2187 138.407 98.1387 138.322 100.016C138.322 101.808 138.236 103.472 138.066 105.008C137.127 113.883 135.378 121.605 132.818 128.176C130.343 134.661 126.716 139.824 121.938 143.664C120.402 144.944 119.122 145.797 118.098 146.224C122.194 146.565 125.82 145.712 128.978 143.664C132.135 141.701 134.908 139.056 137.298 135.728C139.687 132.315 141.692 128.731 143.314 124.976C145.02 121.136 146.471 117.637 147.666 114.48C150.396 107.312 152.914 100.229 155.218 93.232C157.607 86.1493 160.338 79.408 163.41 73.008C166.482 66.5227 170.364 60.464 175.058 54.832C179.751 49.2 185.767 44.208 193.106 39.856C196.519 37.808 199.932 36.3147 203.346 35.376C206.759 34.4373 210.044 33.968 213.202 33.968C218.748 33.968 223.356 35.2907 227.026 37.936C230.78 40.5813 232.658 44.08 232.658 48.432C232.658 51.8453 231.292 55.6427 228.562 59.824C225.831 63.92 221.223 68.2293 214.738 72.752C214.226 73.1787 213.671 73.392 213.074 73.392C212.562 73.392 212.306 73.136 212.306 72.624C212.306 72.112 212.562 71.6853 213.074 71.344C219.815 67.0773 224.594 62.9813 227.41 59.056C230.311 55.1307 231.762 51.7173 231.762 48.816C231.762 45.9147 230.567 43.6107 228.178 41.904C225.874 40.1973 222.716 39.344 218.706 39.344C215.89 39.344 212.732 39.856 209.234 40.88C205.82 41.904 202.236 43.5253 198.482 45.744C195.239 47.7067 191.74 50.4373 187.986 53.936C184.316 57.3493 180.69 61.36 177.105 65.968C173.522 70.4907 170.236 75.44 167.25 80.816C164.348 86.0213 161.618 91.7387 159.058 97.968C156.583 104.112 154.279 109.957 152.146 115.504C150.951 118.832 149.372 122.373 147.41 126.128C145.532 129.883 143.228 133.424 140.498 136.752C137.852 140.08 134.823 142.811 131.41 144.944C127.996 147.077 124.156 148.144 119.89 148.144C119.036 148.144 118.14 148.101 117.201 148.016C116.263 147.931 115.324 147.76 114.386 147.504C113.959 147.504 113.746 147.291 113.746 146.864C113.49 146.693 113.447 146.565 113.618 146.48H113.746C113.746 145.797 114.13 145.541 114.898 145.712C117.97 143.493 120.402 140.549 122.194 136.88C124.071 133.211 125.479 129.157 126.418 124.72C127.442 120.197 128.21 115.589 128.722 110.896C129.234 106.117 129.618 101.509 129.874 97.072C130.215 92.5493 130.599 88.4533 131.026 84.784C131.538 81.0293 132.178 77.488 132.946 74.16C133.799 70.832 134.908 67.9733 136.274 65.584C137.554 63.3653 139.303 61.0613 141.522 58.672C143.826 56.1973 146.3 54.2773 148.946 52.912H148.178C148.092 52.9973 147.922 53.04 147.666 53.04C147.58 53.04 147.495 53.04 147.41 53.04C147.324 52.9547 147.196 52.912 147.026 52.912H142.93C139.858 53.68 136.615 55.728 133.202 59.056C129.788 62.2987 126.332 66.5653 122.834 71.856C119.335 77.1467 115.794 83.12 112.21 89.776C108.711 96.3467 105.298 103.344 101.97 110.768L100.178 114.736C103.164 117.637 105.426 121.051 106.962 124.976C108.583 128.901 109.394 132.955 109.394 137.136C109.394 142 108.284 146.651 106.066 151.088C103.847 155.611 100.476 159.28 95.9535 162.096C91.5162 164.997 85.7988 166.448 78.8015 166.448C76.0708 166.448 73.4255 166.192 70.8655 165.68C68.3908 165.253 66.0442 164.613 63.8255 163.76C59.2175 167.344 54.3108 170.331 49.1055 172.72C43.9855 175.195 38.5242 176.901 32.7215 177.84C31.1002 178.096 29.3935 178.309 27.6015 178.48C25.8095 178.651 24.0602 178.736 22.3535 178.736ZM59.7295 159.792C64.2522 155.184 68.4335 150.064 72.2735 144.432C76.1135 138.885 79.6548 133.253 82.8975 127.536C86.1402 121.819 89.1268 116.485 91.8575 111.536C88.7855 110 85.1162 109.232 80.8495 109.232C78.0335 109.232 75.2602 110.085 72.5295 111.792C69.8842 113.499 67.7082 115.717 66.0015 118.448C64.2948 121.179 63.4415 124.165 63.4415 127.408C63.4415 129.029 63.7828 130.693 64.4655 132.4C65.1482 134.107 66.0015 135.557 67.0255 136.752C68.1348 137.947 69.2868 138.544 70.4815 138.544C71.2495 138.544 71.6335 138.885 71.6335 139.568C71.6335 140.165 71.2922 140.464 70.6095 140.464C68.8175 140.464 67.2388 139.739 65.8735 138.288C64.5082 136.752 63.4415 134.96 62.6735 132.912C61.9055 130.864 61.5215 129.029 61.5215 127.408C61.5215 123.824 62.4602 120.539 64.3375 117.552C66.2148 114.48 68.6468 112.048 71.6335 110.256C74.6202 108.379 77.6922 107.44 80.8495 107.44C83.0682 107.44 85.1588 107.653 87.1215 108.08C89.1695 108.507 91.0468 109.104 92.7535 109.872L95.5695 104.752C102.908 91.3547 109.991 80.2187 116.818 71.344C123.73 62.384 130.215 56.368 136.274 53.296C128.679 53.8933 121.042 55.1307 113.362 57.008C105.682 58.8853 98.3002 61.4027 91.2175 64.56C84.1348 67.7173 77.6068 71.6 71.6335 76.208C65.6602 80.816 60.4975 86.192 56.1455 92.336C51.8788 98.3947 48.7215 105.307 46.6735 113.072C45.3935 118.021 44.7535 122.928 44.7535 127.792C44.7535 134.619 46.0335 140.848 48.5935 146.48C51.1535 152.112 54.8655 156.549 59.7295 159.792ZM78.1615 165.04C84.5615 165.04 89.8522 163.632 94.0335 160.816C98.3002 158.085 101.458 154.544 103.506 150.192C105.639 145.84 106.706 141.275 106.706 136.496C106.706 132.827 106.066 129.285 104.786 125.872C103.591 122.373 101.756 119.301 99.2815 116.656C95.1002 125.445 90.1508 133.851 84.4335 141.872C78.8015 149.893 72.3588 156.805 65.1055 162.608C67.0682 163.376 69.1162 163.973 71.2495 164.4C73.4682 164.827 75.7722 165.04 78.1615 165.04Z" fill="#817F80"/>
</svg>
